<?xml version="1.0" encoding="UTF-8" standalone="no"?>
<!-- Created with Inkscape (http://www.inkscape.org/) -->

<svg
   width="1920px"
   height="1570px"
   viewBox="0 0 1920 1570"
   version="1.1"
   id="SVGRoot"
   inkscape:version="1.2.2 (b0a8486541, 2022-12-01)"
   sodipodi:docname="overleaf.svg"
   inkscape:export-filename="/mnt/buselmu/pictures/browser thumbnails/tagesschau.png"
   inkscape:export-xdpi="96"
   inkscape:export-ydpi="96"
   xml:space="preserve"
   xmlns:inkscape="http://www.inkscape.org/namespaces/inkscape"
   xmlns:sodipodi="http://sodipodi.sourceforge.net/DTD/sodipodi-0.dtd"
   xmlns:xlink="http://www.w3.org/1999/xlink"
   xmlns="http://www.w3.org/2000/svg"
   xmlns:svg="http://www.w3.org/2000/svg"
   xmlns:rdf="http://www.w3.org/1999/02/22-rdf-syntax-ns#"
   xmlns:cc="http://creativecommons.org/ns#"
   xmlns:dc="http://purl.org/dc/elements/1.1/"><sodipodi:namedview
     id="base"
     pagecolor="#ffffff"
     bordercolor="#666666"
     borderopacity="1.0"
     inkscape:pageopacity="0.0"
     inkscape:pageshadow="2"
     inkscape:zoom="0.41831912"
     inkscape:cx="1045.8523"
     inkscape:cy="889.27324"
     inkscape:document-units="px"
     inkscape:current-layer="layer2"
     showgrid="false"
     inkscape:window-width="1920"
     inkscape:window-height="1011"
     inkscape:window-x="0"
     inkscape:window-y="32"
     inkscape:window-maximized="1"
     showguides="true"
     inkscape:guide-bbox="true"
     inkscape:pagecheckerboard="0"
     inkscape:showpageshadow="2"
     inkscape:deskcolor="#d1d1d1"><sodipodi:guide
       position="0,1569.9999"
       orientation="0.70710678,0.70710678"
       id="guide1452"
       inkscape:locked="false" /><sodipodi:guide
       position="1920,1569.9999"
       orientation="-0.70710678,0.70710678"
       id="guide1454"
       inkscape:locked="false" /><sodipodi:guide
       position="0,-0.00012207031"
       orientation="-0.70710678,0.70710678"
       id="guide1458"
       inkscape:locked="false" /><sodipodi:guide
       position="1920,-0.00012207031"
       orientation="0.70710678,0.70710678"
       id="guide1460"
       inkscape:locked="false" /><sodipodi:guide
       position="1135,784.99989"
       orientation="0,1"
       id="guide1462"
       inkscape:locked="false" /></sodipodi:namedview><defs
     id="defs825"><linearGradient
       gradientTransform="matrix(0,0.99999997,0.99999998,0,2183.8571,98.571407)"
       y2="199"
       x2="400"
       y1="199"
       x1="9.094947e-013"
       gradientUnits="userSpaceOnUse"
       id="SVGID_1_"><stop
         id="stop1505"
         style="stop-color:#E52D27"
         offset="0" /><stop
         id="stop1507"
         style="stop-color:#BF171D"
         offset="1" /></linearGradient><clipPath
       id="clipPath958"><path
         id="path956"
         d="m1 1h640.93v132.88h-640.93z" /></clipPath><clipPath
       id="clip2"><rect
         id="rect960"
         height="134"
         width="642" /></clipPath><g
       id="g963"
       clip-path="url(#clip2)" /><clipPath
       id="clipPath967"><path
         id="path965"
         d="m1 1h210.93v210.88h-210.93z" /></clipPath><clipPath
       id="clip4"><rect
         id="rect969"
         height="212"
         width="212" /></clipPath><g
       id="g972"
       clip-path="url(#clip4)" /><clipPath
       id="clipPath976"><path
         id="path974"
         d="m1 1h210.93v210.88h-210.93z" /></clipPath><clipPath
       id="clip8"><rect
         id="rect978"
         height="212"
         width="212" /></clipPath><g
       id="g981"
       clip-path="url(#clip8)" /><clipPath
       id="clipPath985"><path
         id="path983"
         d="m1 1h117.93v110.88h-117.93z" /></clipPath><clipPath
       id="clip12"><rect
         id="rect987"
         height="112"
         width="119" /></clipPath><g
       id="g990"
       clip-path="url(#clip12)" /><linearGradient
       gradientUnits="userSpaceOnUse"
       gradientTransform="matrix(0,-8.0078312,8.0078202,0,-102.50188,103.64171)"
       x2="1"
       id="linearGradient2628"><stop
         id="stop992"
         offset="0"
         stop-color="#20b038" /><stop
         id="stop994"
         offset="1"
         stop-color="#60d66a" /></linearGradient><linearGradient
       gradientUnits="userSpaceOnUse"
       gradientTransform="matrix(0,-8.2948835,8.2948721,0,-102.50185,103.78624)"
       x2="1"
       id="linearGradient2630"><stop
         id="stop997"
         offset="0"
         stop-color="#f9f9f9" /><stop
         id="stop999"
         offset="1"
         stop-color="#fff" /></linearGradient><linearGradient
       x1="274.64203"
       y1="353.65765"
       x2="302.80609"
       y2="325.49359"
       id="linearGradient3870"
       xlink:href="#linearGradient3864"
       gradientUnits="userSpaceOnUse"
       gradientTransform="translate(-20,-20)" /><linearGradient
       id="linearGradient3864"><stop
         id="stop3866"
         style="stop-color:#001a4b;stop-opacity:1"
         offset="0" /><stop
         id="stop3868"
         style="stop-color:#001a4b;stop-opacity:0"
         offset="1" /></linearGradient><style
       id="style2819">
      .cls-1 {
        fill: #046530;
        stroke-width: 0px;
      }
    </style></defs><metadata
     id="metadata828"><rdf:RDF><cc:Work
         rdf:about=""><dc:format>image/svg+xml</dc:format><dc:type
           rdf:resource="http://purl.org/dc/dcmitype/StillImage" /><dc:title /></cc:Work></rdf:RDF></metadata><g
     inkscape:groupmode="layer"
     id="layer2"
     inkscape:label="background"
     style="opacity:1"><rect
       style="opacity:1;fill:#ffffff;fill-opacity:1;fill-rule:evenodd;stroke:none;stroke-width:18;stroke-linecap:butt;stroke-linejoin:round;stroke-miterlimit:4;stroke-dasharray:none;stroke-opacity:1;paint-order:fill markers stroke"
       id="rect1428"
       width="1920"
       height="1570"
       x="0"
       y="0.00011999215" /><rect
       id="rect1510"
       height="1570"
       width="1920"
       x="0"
       y="4.5000002e-006"
       style="fill:#0f271a;stroke-width:1;fill-opacity:1" /><g
       id="g2833"
       transform="matrix(3.7135446,0,0,3.7135446,124.54558,401.89919)"
       style="stroke-width:1.00015;stroke-dasharray:none"><path
         class="cls-1"
         d="m 177.27,107.6 c 0.39,3.49 1.75,6.27 4.2,8.27 2.39,2 5.49,3.04 9.31,3.04 2.52,0 4.78,-0.52 6.79,-1.55 2,-1.1 3.62,-2.52 4.78,-4.46 h 12.15 c -2.07,5.3 -5.11,9.37 -9.24,12.35 -4.07,2.91 -8.85,4.4 -14.22,4.4 -3.62,0 -6.92,-0.65 -9.95,-1.94 -3.04,-1.29 -5.75,-3.17 -8.21,-5.69 -2.26,-2.39 -4.07,-5.11 -5.3,-8.27 -1.23,-3.17 -1.88,-6.33 -1.88,-9.63 0,-3.3 0.58,-6.59 1.75,-9.57 1.16,-2.97 2.84,-5.69 5.11,-8.08 2.46,-2.65 5.3,-4.65 8.4,-6.01 3.1,-1.42 6.33,-2.13 9.63,-2.13 4.2,0 8.14,0.97 11.76,2.84 3.62,1.94 6.72,4.59 9.31,8.08 1.55,2.07 2.71,4.4 3.49,7.05 0.78,2.59 1.1,5.56 1.1,8.92 0,0.26 0,0.65 -0.07,1.23 0,0.58 -0.06,0.97 -0.06,1.23 h -38.85 v -0.06 z m 26.82,-8.98 c -0.97,-3.23 -2.59,-5.69 -4.85,-7.37 -2.26,-1.68 -5.17,-2.52 -8.6,-2.52 -3.04,0 -5.69,0.9 -8.08,2.71 -2.39,1.81 -4.01,4.2 -4.85,7.17 h 26.37 z m 39.24,-9.05 c -4.4,0.32 -7.43,1.49 -9.18,3.43 -1.74,1.94 -2.58,5.43 -2.58,10.47 v 24.76 H 220.26 V 79.75 h 10.6 v 5.62 c 1.68,-2.2 3.55,-3.75 5.62,-4.78 2,-1.03 4.33,-1.55 6.85,-1.55 V 89.58 Z M 137.32,39.67 c -13.7,-5.36 -63.28,-7.3 -63.34,22.3 -14.48,9.24 -24.04,24.3 -24.04,40.46 0,19.52 15.84,35.36 35.36,35.36 19.52,0 35.36,-15.84 35.36,-35.36 0,-15.06 -9.44,-27.99 -22.75,-33.03 -2.59,-0.97 -8.14,-2.71 -12.54,-2.33 -6.33,4.01 -14.09,12.28 -17.71,20.55 5.43,-6.53 13.9,-9.37 21.46,-8.14 11.05,1.81 19.52,11.38 19.52,23.01 0,12.86 -10.41,23.27 -23.27,23.27 -7.11,0 -13.44,-3.17 -17.71,-8.14 -6.4,-7.43 -8.01,-15.45 -6.72,-23.27 C 65.4,66.94 97.91,51.37 122.09,45.36 114.2,49.56 99.98,56.41 90.03,63.85 119.05,75.1 123.77,50.6 137.34,39.68 Z m 11.77,88.61 h -8.85 L 121.82,79.74 h 12.02 l 11.31,32.25 11.63,-32.25 h 11.7 z"
         id="path2823"
         style="fill:#79786f;fill-opacity:1;stroke-width:1.00015;stroke-dasharray:none" /><path
         class="cls-1"
         d="m 275.25,107.6 c 0.39,3.49 1.81,6.27 4.2,8.27 2.39,2 5.49,3.04 9.31,3.04 2.52,0 4.78,-0.52 6.79,-1.55 2,-1.1 3.62,-2.52 4.78,-4.46 h 12.15 c -2.07,5.3 -5.11,9.37 -9.24,12.35 -4.07,2.91 -8.85,4.4 -14.22,4.4 -3.62,0 -6.92,-0.65 -9.95,-1.94 -3.04,-1.29 -5.75,-3.17 -8.21,-5.69 -2.26,-2.39 -4.07,-5.11 -5.3,-8.27 -1.29,-3.1 -1.88,-6.33 -1.88,-9.63 0,-3.3 0.58,-6.59 1.74,-9.57 1.16,-2.97 2.84,-5.69 5.11,-8.08 2.46,-2.65 5.3,-4.65 8.4,-6.01 3.1,-1.42 6.33,-2.13 9.63,-2.13 4.2,0 8.14,0.97 11.76,2.84 3.62,1.94 6.72,4.59 9.31,8.08 1.55,2.07 2.71,4.4 3.49,7.05 0.78,2.59 1.1,5.56 1.1,8.92 0,0.26 0,0.65 -0.07,1.23 0,0.58 -0.06,0.97 -0.06,1.23 h -38.85 v -0.06 z m 26.76,-8.98 c -0.97,-3.23 -2.59,-5.69 -4.85,-7.37 -2.26,-1.68 -5.17,-2.52 -8.6,-2.52 -3.04,0 -5.69,0.9 -8.08,2.71 -2.39,1.81 -4.01,4.2 -4.85,7.17 H 302 Z m 57.01,29.66 v -5.95 c -1.36,2.39 -3.23,4.2 -5.69,5.36 -2.46,1.16 -5.62,1.75 -9.44,1.75 -7.17,0 -13.19,-2.46 -17.97,-7.37 -4.78,-4.91 -7.24,-10.99 -7.24,-18.23 0,-3.43 0.58,-6.66 1.81,-9.7 1.23,-3.04 2.91,-5.75 5.17,-8.08 2.39,-2.59 5.11,-4.46 8.02,-5.69 2.91,-1.23 6.27,-1.81 9.95,-1.81 3.68,0 6.59,0.58 9.11,1.75 2.52,1.16 4.59,2.97 6.14,5.36 v -5.88 h 10.99 v 48.54 h -10.86 v -0.06 z m -28.76,-24.69 c 0,4.07 1.36,7.5 4.07,10.28 2.71,2.78 6.01,4.14 9.95,4.14 3.55,0 6.66,-1.36 9.37,-4.14 2.71,-2.78 4.07,-6.01 4.07,-9.7 0,-3.94 -1.36,-7.3 -4.07,-10.15 -2.71,-2.84 -5.88,-4.27 -9.57,-4.27 -3.69,0 -7.05,1.36 -9.76,4.01 -2.71,2.71 -4.07,5.95 -4.07,9.82 z M 400,79.74 v 10.08 h -8.14 v 38.46 H 380.94 V 89.82 h -5.75 V 79.74 h 5.43 v -1.29 c 0,-5.11 1.42,-8.92 4.2,-11.44 2.84,-2.52 7.11,-3.75 12.86,-3.75 0.19,0 0.58,0 1.1,0.06 0.52,0 0.9,0.06 1.23,0.06 v 10.15 h -0.78 c -2.58,0 -4.39,0.45 -5.49,1.23 -1.1,0.84 -1.68,2.2 -1.68,4.2 v 0.9 h 7.95 v -0.13 z m -151.77,48.54 h 11.05 V 64.03 h -11.05 z"
         id="path2825"
         style="fill:#46a247;fill-opacity:1;stroke-width:1.00015;stroke-dasharray:none" /></g></g><g
     inkscape:groupmode="layer"
     id="layer3"
     inkscape:label="logo" /><style
     id="style1063"
     type="text/css">
                            .logo_white{fill:#FFFFFF;}
                            .logo_green{fill:#00E676;}
                        </style></svg>
